<?xml version="1.0" standalone="no"?>
<!DOCTYPE svg PUBLIC "-//W3C//DTD SVG 20010904//EN"
 "http://www.w3.org/TR/2001/REC-SVG-20010904/DTD/svg10.dtd">
<svg version="1.0" xmlns="http://www.w3.org/2000/svg"
 width="1103.000000pt" height="1280.000000pt" viewBox="0 0 1103.000000 1280.000000"
 preserveAspectRatio="xMidYMid meet">
<g transform="translate(0.000000,1280.000000) scale(0.100000,-0.100000)"
fill="#000000" stroke="none">
<path d="M5020 12507 c-239 -144 -1432 -863 -2650 -1596 -1218 -734 -2221
-1340 -2229 -1347 -11 -10 -11 -16 3 -35 21 -31 20 -49 -3 -49 -27 0 -29 -38
-36 -570 -3 -245 -10 -697 -15 -1005 -5 -308 -14 -834 -20 -1170 -25 -1524
-32 -1911 -46 -2665 -9 -443 -18 -847 -21 -898 -4 -78 -3 -92 10 -92 9 0 399
-211 869 -469 469 -257 1618 -888 2553 -1401 935 -513 1758 -965 1829 -1004
119 -66 131 -75 158 -124 17 -28 34 -52 39 -52 4 0 31 13 59 30 28 16 63 33
77 37 15 3 34 14 43 24 13 15 818 477 4615 2649 510 292 570 328 570 350 0 19
6 26 26 28 l26 3 7 337 c3 185 11 605 16 932 10 581 20 1186 40 2430 6 338 15
865 20 1170 22 1272 24 1508 11 1524 -7 8 -10 23 -7 34 5 15 -43 46 -296 194
-4285 2488 -5157 2992 -5183 2995 -24 3 -110 -45 -465 -260z m3075 -1427
c1425 -827 2607 -1513 2628 -1524 21 -12 36 -27 35 -36 -2 -8 -602 -357 -1333
-775 -732 -419 -1874 -1073 -2539 -1453 -665 -381 -1214 -692 -1221 -692 -7 0
-532 285 -1166 633 -635 349 -1694 930 -2354 1292 -660 362 -1328 729 -1484
815 -157 86 -286 161 -288 167 -2 6 162 111 364 232 202 122 1349 813 2548
1536 1367 824 2187 1314 2200 1312 11 -2 1186 -680 2610 -1507z m-6769 -2288
c560 -307 1714 -941 2564 -1407 850 -466 1568 -860 1597 -876 38 -22 56 -40
71 -72 19 -42 19 -65 -33 -3092 -29 -1677 -53 -3051 -54 -3052 -6 -12 -132 54
-872 460 -464 255 -1379 758 -2034 1117 -655 359 -1455 799 -1780 977 -324
178 -596 330 -603 337 -10 10 -11 125 -2 614 10 604 21 1267 40 2412 6 338 14
876 20 1195 5 319 14 884 20 1255 6 371 13 681 16 689 2 7 10 11 17 8 8 -3
472 -257 1033 -565z m9485 -179 c-6 -395 -16 -972 -21 -1283 -5 -311 -14 -839
-20 -1175 -5 -335 -15 -889 -20 -1230 -24 -1440 -30 -1699 -37 -1706 -4 -4
-314 -183 -688 -397 -374 -214 -1512 -865 -2528 -1446 -1017 -582 -1851 -1055
-1855 -1051 -4 4 -6 93 -4 198 2 106 21 1270 42 2587 22 1317 43 2604 47 2858
5 403 8 466 22 482 9 10 912 530 2006 1156 1095 626 2228 1274 2520 1441 322
184 533 299 539 293 5 -5 4 -290 -3 -727z"/>
<path d="M5255 10085 c-354 -59 -616 -199 -738 -392 -77 -122 -89 -293 -29
-414 91 -185 283 -321 567 -404 154 -44 264 -58 460 -59 200 0 321 16 485 65
380 112 611 354 587 614 -25 270 -314 495 -747 581 -114 22 -472 28 -585 9z"/>
<path d="M1490 7695 c-230 -52 -411 -230 -466 -460 -21 -90 -21 -254 1 -360
90 -432 476 -837 913 -956 93 -25 300 -36 384 -20 133 24 275 103 357 198 92
106 151 275 151 432 0 286 -130 572 -369 812 -169 169 -346 275 -561 336 -109
31 -312 40 -410 18z"/>
<path d="M3431 3800 c-370 -78 -566 -392 -496 -791 39 -225 153 -442 332 -630
158 -166 363 -294 568 -356 81 -24 106 -27 250 -27 138 -1 169 2 230 21 153
48 286 159 354 297 57 114 74 188 74 326 0 282 -129 563 -368 802 -169 169
-363 284 -573 339 -88 23 -300 34 -371 19z"/>
<path d="M9615 8020 c-451 -70 -878 -411 -1010 -805 -36 -106 -46 -288 -21
-385 55 -220 219 -381 458 -451 104 -30 330 -38 452 -15 276 52 523 182 716
376 106 106 172 199 230 323 51 108 70 182 77 298 19 304 -165 549 -477 639
-86 25 -321 36 -425 20z"/>
<path d="M8550 5795 c-8 -2 -49 -9 -90 -15 -310 -50 -639 -249 -831 -503 -120
-158 -199 -370 -199 -532 0 -235 134 -444 350 -548 132 -63 222 -82 395 -81
152 1 227 14 376 64 378 126 710 446 802 770 110 388 -80 722 -468 821 -73 18
-293 35 -335 24z"/>
<path d="M7380 3454 c-14 -2 -56 -9 -95 -15 -306 -49 -635 -249 -827 -503 -67
-89 -148 -247 -173 -341 -61 -229 -4 -462 152 -618 81 -81 222 -155 348 -184
104 -23 327 -23 434 1 263 59 503 189 686 371 224 224 332 486 304 736 -29
259 -215 458 -494 529 -77 20 -277 34 -335 24z"/>
</g>
</svg>
